<?xml version="1.0" encoding="UTF-8"?> <svg xmlns="http://www.w3.org/2000/svg" width="52" height="52" viewBox="0 0 52 52" fill="none"> <circle cx="25.8847" cy="25.7024" r="25.4925" fill="#3091C5"></circle> <path d="M25.8846 14.7024L34.1016 16.5284C34.3237 16.5778 34.5223 16.7014 34.6647 16.8788C34.807 17.0562 34.8846 17.2769 34.8846 17.5044V27.4914C34.8846 28.4791 34.6407 29.4516 34.1745 30.3224C33.7084 31.1932 33.0345 31.9355 32.2126 32.4834L25.8846 36.7024L19.5566 32.4834C18.7349 31.9356 18.0611 31.1935 17.595 30.3228C17.1289 29.4522 16.8849 28.48 16.8846 27.4924V17.5044C16.8847 17.2769 16.9623 17.0562 17.1046 16.8788C17.247 16.7014 17.4456 16.5778 17.6676 16.5284L25.8846 14.7024ZM25.8846 16.7514L18.8846 18.3064V27.4914C18.8847 28.1499 19.0472 28.7981 19.3579 29.3787C19.6686 29.9592 20.1178 30.4541 20.6656 30.8194L25.8846 34.2994L31.1036 30.8194C31.6514 30.4542 32.1005 29.9595 32.4111 29.3791C32.7218 28.7988 32.8845 28.1507 32.8846 27.4924V18.3064L25.8846 16.7514Z" fill="white"></path> </svg> 