<?xml version="1.0" encoding="UTF-8"?> <svg xmlns="http://www.w3.org/2000/svg" width="52" height="52" viewBox="0 0 52 52" fill="none"> <circle cx="26.0733" cy="25.7024" r="25.4925" fill="#3091C5"></circle> <path d="M19.4463 17.1085C21.273 15.4879 23.6313 14.5947 26.0733 14.5985C31.5963 14.5985 36.0733 19.0755 36.0733 24.5985C36.0766 26.6424 35.4505 28.6378 34.2803 30.3135L31.5733 24.5985H34.0733C34.0733 23.0079 33.5992 21.4533 32.7114 20.1335C31.8237 18.8136 30.5626 17.7884 29.0893 17.1887C27.6161 16.589 25.9975 16.4421 24.4403 16.7668C22.8832 17.0915 21.4581 17.873 20.3473 19.0115L19.4473 17.1095L19.4463 17.1085ZM32.7003 32.0885C30.8736 33.7091 28.5153 34.6024 26.0733 34.5985C20.5503 34.5985 16.0733 30.1215 16.0733 24.5985C16.0733 22.4735 16.7363 20.5035 17.8663 18.8835L20.5733 24.5985H18.0733C18.0733 26.1892 18.5474 27.7437 19.4352 29.0636C20.3229 30.3834 21.584 31.4087 23.0573 32.0084C24.5306 32.608 26.1491 32.7549 27.7063 32.4302C29.2635 32.1055 30.6885 31.324 31.7993 30.1855L32.6993 32.0875L32.7003 32.0885Z" fill="white"></path> <path d="M21.9365 27.4011V26.3913H23.1927V23.1712L22.2306 23.7357L21.7615 22.8373L23.5505 21.7957H24.4251V26.3913H25.6018V27.4011H21.9365Z" fill="white"></path> <path d="M28.2941 27.4886C27.6156 27.4886 27.0961 27.2368 26.7357 26.7332C26.3806 26.2297 26.203 25.5114 26.203 24.5785C26.203 23.6456 26.3806 22.9353 26.7357 22.4477C27.0961 21.9547 27.6156 21.7083 28.2941 21.7083C28.9726 21.7083 29.4894 21.9547 29.8445 22.4477C30.205 22.9353 30.3852 23.6456 30.3852 24.5785C30.3852 25.5114 30.205 26.2297 29.8445 26.7332C29.4894 27.2368 28.9726 27.4886 28.2941 27.4886ZM28.2941 26.4868C28.6015 26.4868 28.8294 26.3357 28.9779 26.0336C29.1263 25.7261 29.2005 25.2411 29.2005 24.5785C29.2005 23.916 29.1263 23.4389 28.9779 23.1474C28.8294 22.8558 28.6015 22.7101 28.2941 22.7101C27.9866 22.7101 27.7587 22.8558 27.6103 23.1474C27.4619 23.4389 27.3877 23.916 27.3877 24.5785C27.3877 25.2411 27.4619 25.7261 27.6103 26.0336C27.7587 26.3357 27.9866 26.4868 28.2941 26.4868Z" fill="white"></path> </svg> 