<?xml version="1.0" encoding="UTF-8"?> <svg xmlns="http://www.w3.org/2000/svg" width="52" height="52" viewBox="0 0 52 52" fill="none"> <circle cx="25.8835" cy="25.7" r="25.4925" fill="#3091C5"></circle> <path d="M25.8835 17.7C31.9585 17.7 36.8835 20.386 36.8835 23.7V27.7C36.8835 31.014 31.9585 33.7 25.8835 33.7C19.9165 33.7 15.0595 31.109 14.8885 27.877L14.8835 27.7V23.7C14.8835 20.386 19.8085 17.7 25.8835 17.7ZM25.8835 29.7C22.1635 29.7 18.8735 28.693 16.8835 27.15V27.7C16.8835 29.582 20.7665 31.7 25.8835 31.7C30.8935 31.7 34.7215 29.67 34.8785 27.818L34.8835 27.7L34.8845 27.15C32.8945 28.692 29.6045 29.7 25.8835 29.7ZM25.8835 19.7C20.7665 19.7 16.8835 21.818 16.8835 23.7C16.8835 25.582 20.7665 27.7 25.8835 27.7C31.0005 27.7 34.8835 25.582 34.8835 23.7C34.8835 21.818 31.0005 19.7 25.8835 19.7Z" fill="white"></path> </svg> 