<?xml version="1.0" encoding="UTF-8"?> <svg xmlns="http://www.w3.org/2000/svg" width="52" height="52" viewBox="0 0 52 52" fill="none"> <circle cx="26.4306" cy="26.1013" r="25.4925" fill="#3091C5"></circle> <path d="M23.3957 31.0981C23.2768 31.9324 22.8609 32.6958 22.2243 33.2481C21.5878 33.8004 20.7734 34.1044 19.9307 34.1044C19.0879 34.1044 18.2735 33.8004 17.637 33.2481C17.0004 32.6958 16.5845 31.9324 16.4657 31.0981H15.4307V19.0981C15.4307 18.8329 15.536 18.5786 15.7236 18.391C15.9111 18.2035 16.1654 18.0981 16.4307 18.0981H30.4307C30.6959 18.0981 30.9502 18.2035 31.1378 18.391C31.3253 18.5786 31.4307 18.8329 31.4307 19.0981V21.0981H34.4307L37.4307 25.1541V31.0981H35.3957C35.2768 31.9324 34.8609 32.6958 34.2243 33.2481C33.5878 33.8004 32.7734 34.1044 31.9307 34.1044C31.0879 34.1044 30.2735 33.8004 29.637 33.2481C29.0004 32.6958 28.5845 31.9324 28.4657 31.0981H23.3957ZM29.4307 20.0981H17.4307V28.1481C17.8252 27.7453 18.3113 27.4438 18.8474 27.2693C19.3836 27.0947 19.954 27.0522 20.51 27.1455C21.0661 27.2388 21.5914 27.4651 22.0413 27.805C22.4911 28.145 22.8521 28.5886 23.0937 29.0981H28.7677C28.9357 28.7451 29.1607 28.4241 29.4307 28.1481V20.0981ZM31.4307 26.0981H35.4307V25.8131L33.4227 23.0981H31.4307V26.0981ZM31.9307 32.0981C32.3286 32.0981 32.7103 31.9401 32.9917 31.6587C33.2731 31.3773 33.4312 30.9956 33.4312 30.5976C33.4312 30.1997 33.2731 29.818 32.9917 29.5366C32.7103 29.2552 32.3286 29.0971 31.9307 29.0971C31.5327 29.0971 31.151 29.2552 30.8696 29.5366C30.5883 29.818 30.4302 30.1997 30.4302 30.5976C30.4302 30.9956 30.5883 31.3773 30.8696 31.6587C31.151 31.9401 31.5327 32.0981 31.9307 32.0981ZM21.4307 30.5981C21.4307 30.4012 21.3919 30.2061 21.3165 30.0241C21.2411 29.8421 21.1306 29.6768 20.9913 29.5375C20.852 29.3982 20.6867 29.2877 20.5047 29.2123C20.3227 29.1369 20.1276 29.0981 19.9307 29.0981C19.7337 29.0981 19.5386 29.1369 19.3566 29.2123C19.1747 29.2877 19.0093 29.3982 18.87 29.5375C18.7307 29.6768 18.6202 29.8421 18.5448 30.0241C18.4695 30.2061 18.4307 30.4012 18.4307 30.5981C18.4307 30.996 18.5887 31.3775 18.87 31.6588C19.1513 31.9401 19.5328 32.0981 19.9307 32.0981C20.3285 32.0981 20.71 31.9401 20.9913 31.6588C21.2726 31.3775 21.4307 30.996 21.4307 30.5981Z" fill="white"></path> </svg> 