<?xml version="1.0" encoding="UTF-8"?> <svg xmlns="http://www.w3.org/2000/svg" width="33" height="37" viewBox="0 0 33 37" fill="none"> <rect y="0.727783" width="32.5163" height="35.85" rx="1" fill="#009ECD"></rect> <path d="M1.36633 33.9246V24.8915C4.13737 22.8848 7.05967 25.1703 8.17444 26.5639C8.17444 26.5639 9.72717 23.5779 12.4743 24.8915C13.3779 18.1521 19.0435 18.3225 22.2684 19.8752C22.2684 19.8752 22.2684 17.4788 25.2545 17.4788C25.2545 17.4788 26.4489 12.8282 30.8682 15.5752V33.9246C30.8682 34.4769 30.4205 34.9246 29.8682 34.9246H2.36633C1.81405 34.9246 1.36633 34.4769 1.36633 33.9246Z" fill="white"></path> <circle cx="20.9546" cy="10.7979" r="2.8666" fill="white"></circle> <circle cx="8.11459" cy="12.2909" r="4.35958" fill="white"></circle> <circle r="1.97081" transform="matrix(-1 0 0 1 7.21877 21.0056)" fill="white"></circle> <circle r="1.97081" transform="matrix(-1 0 0 1 15.281 14.7073)" fill="white"></circle> </svg> 