<?xml version="1.0" encoding="UTF-8"?> <svg xmlns="http://www.w3.org/2000/svg" width="52" height="52" viewBox="0 0 52 52" fill="none"> <circle cx="26.0558" cy="26.1013" r="25.4925" fill="#3091C5"></circle> <path d="M36.0558 25.1013V34.1013H34.0558V31.1013H18.0558V34.1013H16.0558V18.1013H18.0558V28.1013H26.0558V21.1013H32.0558C33.1167 21.1013 34.1341 21.5227 34.8842 22.2729C35.6344 23.023 36.0558 24.0405 36.0558 25.1013ZM34.0558 28.1013V25.1013C34.0558 24.5709 33.8451 24.0622 33.47 23.6871C33.0949 23.312 32.5862 23.1013 32.0558 23.1013H28.0558V28.1013H34.0558ZM22.0558 25.1013C22.321 25.1013 22.5754 24.996 22.7629 24.8084C22.9504 24.6209 23.0558 24.3665 23.0558 24.1013C23.0558 23.8361 22.9504 23.5817 22.7629 23.3942C22.5754 23.2067 22.321 23.1013 22.0558 23.1013C21.7906 23.1013 21.5362 23.2067 21.3487 23.3942C21.1611 23.5817 21.0558 23.8361 21.0558 24.1013C21.0558 24.3665 21.1611 24.6209 21.3487 24.8084C21.5362 24.996 21.7906 25.1013 22.0558 25.1013ZM22.0558 27.1013C21.2601 27.1013 20.4971 26.7852 19.9345 26.2226C19.3719 25.66 19.0558 24.897 19.0558 24.1013C19.0558 23.3057 19.3719 22.5426 19.9345 21.98C20.4971 21.4174 21.2601 21.1013 22.0558 21.1013C22.8514 21.1013 23.6145 21.4174 24.1771 21.98C24.7397 22.5426 25.0558 23.3057 25.0558 24.1013C25.0558 24.897 24.7397 25.66 24.1771 26.2226C23.6145 26.7852 22.8514 27.1013 22.0558 27.1013Z" fill="white"></path> </svg> 