<?xml version="1.0" encoding="UTF-8"?> <svg xmlns="http://www.w3.org/2000/svg" width="52" height="52" viewBox="0 0 52 52" fill="none"> <circle cx="25.5559" cy="26.0062" r="25.4925" fill="#3091C5"></circle> <path d="M18.2979 23.0888C18.5631 23.0888 18.8175 23.1942 19.005 23.3817C19.1926 23.5693 19.2979 23.8236 19.2979 24.0888C20.8691 24.0865 22.3949 24.6151 23.6279 25.5888H25.7979C27.1299 25.5888 28.3279 26.1678 29.1509 27.0878L32.2979 27.0888C33.2432 27.0886 34.1691 27.3563 34.9684 27.8609C35.7678 28.3655 36.4076 29.0863 36.8139 29.9398C34.4489 33.0608 30.6199 35.0888 26.2979 35.0888C23.5079 35.0888 21.1479 34.4858 19.2379 33.4308C19.168 33.6239 19.0402 33.7907 18.8719 33.9084C18.7037 34.0262 18.5033 34.0892 18.2979 34.0888H15.2979C15.0327 34.0888 14.7783 33.9835 14.5908 33.7959C14.4033 33.6084 14.2979 33.354 14.2979 33.0888V24.0888C14.2979 23.8236 14.4033 23.5693 14.5908 23.3817C14.7783 23.1942 15.0327 23.0888 15.2979 23.0888H18.2979ZM19.2989 26.0888L19.2979 31.1098L19.3429 31.1428C21.1379 32.4028 23.4759 33.0888 26.2979 33.0888C29.3019 33.0888 32.0969 31.9328 34.1329 29.9588L34.2659 29.8258L34.1459 29.7258C33.6737 29.356 33.1013 29.1365 32.5029 29.0958L32.2979 29.0888L30.1859 29.0878C30.2589 29.4098 30.2979 29.7448 30.2979 30.0888V31.0888H21.2979V29.0888L28.0879 29.0878L28.0539 29.0098C27.8623 28.6094 27.5675 28.2671 27.1998 28.0183C26.8322 27.7694 26.4049 27.6229 25.9619 27.5938L25.7979 27.5888H22.8679C22.4032 27.1135 21.8482 26.736 21.2354 26.4784C20.6227 26.2208 19.9646 26.0883 19.2999 26.0888H19.2989ZM17.2979 25.0888H16.2979V32.0888H17.2979V25.0888ZM26.9439 17.6638L27.2979 18.0188L27.6519 17.6648C27.8837 17.431 28.1594 17.2453 28.4632 17.1184C28.767 16.9915 29.0928 16.9258 29.422 16.9251C29.7513 16.9244 30.0774 16.9888 30.3817 17.1145C30.6859 17.2402 30.9624 17.4247 31.1952 17.6576C31.4279 17.8904 31.6124 18.1669 31.738 18.4712C31.8636 18.7756 31.9279 19.1017 31.9271 19.4309C31.9264 19.7601 31.8606 20.086 31.7336 20.3897C31.6065 20.6934 31.4208 20.9691 31.1869 21.2008L27.2979 25.0888L23.4079 21.1988C23.1741 20.967 22.9884 20.6913 22.8615 20.3875C22.7346 20.0838 22.6689 19.7579 22.6682 19.4287C22.6675 19.0995 22.7319 18.7734 22.8576 18.4691C22.9833 18.1648 23.1678 17.8883 23.4007 17.6556C23.6335 17.4228 23.91 17.2383 24.2143 17.1127C24.5186 16.9871 24.8448 16.9228 25.174 16.9236C25.5032 16.9244 25.8291 16.9901 26.1328 17.1172C26.4365 17.2442 26.7122 17.43 26.9439 17.6638V17.6638ZM24.8239 19.0788C24.741 19.1612 24.6896 19.2701 24.6787 19.3865C24.6677 19.5028 24.6979 19.6194 24.7639 19.7158L24.8219 19.7848L27.2979 22.2588L29.7739 19.7848C29.8567 19.7021 29.9079 19.5929 29.9185 19.4763C29.9291 19.3597 29.8985 19.2431 29.8319 19.1468L29.7739 19.0768C29.6911 18.9941 29.5818 18.9432 29.4652 18.9327C29.3487 18.9223 29.2321 18.9531 29.1359 19.0198L29.0659 19.0778L27.2969 20.8458L25.5299 19.0758L25.4619 19.0198C25.3656 18.9533 25.249 18.9226 25.1324 18.9332C25.0158 18.9438 24.9066 18.995 24.8239 19.0778V19.0788Z" fill="white"></path> </svg> 