<?xml version="1.0" encoding="UTF-8"?> <svg xmlns="http://www.w3.org/2000/svg" width="52" height="52" viewBox="0 0 52 52" fill="none"> <path d="M26.4418 51.3639C40.5209 51.3639 51.9343 39.9505 51.9343 25.8714C51.9343 11.7923 40.5209 0.378906 26.4418 0.378906C12.3627 0.378906 0.94931 11.7923 0.94931 25.8714C0.94931 39.9505 12.3627 51.3639 26.4418 51.3639Z" fill="white"></path> <path d="M35.4418 16.8631V34.8791C35.4397 35.1418 35.3344 35.393 35.1486 35.5786C34.9628 35.7642 34.7114 35.8693 34.4488 35.8711H18.4348C18.1716 35.8711 17.9192 35.7667 17.733 35.5806C17.5468 35.3946 17.442 35.1423 17.4418 34.8791V16.8631C17.4439 16.6005 17.5492 16.3493 17.735 16.1637C17.9208 15.978 18.1722 15.873 18.4348 15.8711H34.4488C34.9968 15.8711 35.4418 16.3151 35.4418 16.8631ZM33.4418 17.8711H19.4418V33.8711H33.4418V17.8711ZM25.7348 26.9921L29.9778 22.7501L31.3918 24.1641L25.7348 29.8211L21.8448 25.9311L23.2598 24.5171L25.7348 26.9921Z" fill="#3091C5"></path> </svg> 