<?xml version="1.0" ?><svg viewBox="0 0 20.4 22.023" xmlns="http://www.w3.org/2000/svg"><g data-name="Layer 2" id="Layer_2"><g data-name="Layer 1" id="Layer_1-2"><path d="M10.882,20.092H7.314a.334.334,0,0,1,0-.668h3.568A.334.334,0,0,1,10.882,20.092Zm9.07-8.1a8.582,8.582,0,0,1-1.818-3.022C17.591-3.014.505-2.982.011,9.015c-.187,3.05,2.074,5.693,3.352,8.163A15.492,15.492,0,0,1,4.044,21.7a.335.335,0,0,0,.669-.006A15.749,15.749,0,0,0,3.972,16.9C2.773,14.493.505,11.972.68,9.015c.46-11.131,16.325-11.132,16.785,0a8.065,8.065,0,0,0,1.976,3.412c.173.233.538.7-.011.988a15.047,15.047,0,0,1-1.8.857.333.333,0,0,0-.21.356,13.145,13.145,0,0,1,.035,3.183c-.1.5-1.228.838-2.818.838a1.36,1.36,0,0,0-1.476,1.426V21.7a.335.335,0,0,0,.67,0V20.075a.714.714,0,0,1,.806-.757c4.05-.02,3.7-1.443,3.476-4.519C19.251,14.286,21.311,13.647,19.952,12Zm-6.791.955a2.507,2.507,0,0,0-.761,1.755v2.6a1,1,0,0,1-1,1H6.787a1,1,0,0,1-1-1V14.666a2.515,2.515,0,0,0-.747-1.745A5.652,5.652,0,0,1,3.427,8.958c.266-7.528,11.108-7.524,11.374,0A5.654,5.654,0,0,1,13.161,12.951Zm-1.43,3.35H6.452c.047.544-.18,1.332.335,1.338H11.4a.335.335,0,0,0,.335-.334Zm.033-2.007H6.426c.046.262.021,1.061.026,1.338h5.279A12.119,12.119,0,0,1,11.764,14.294Zm.921-1.813a5.017,5.017,0,1,0-7.17-.026,3.339,3.339,0,0,1,.744,1.169h5.68A3.351,3.351,0,0,1,12.685,12.481ZM7.218,8.958a.334.334,0,0,0-.334-.335H5.546a.335.335,0,1,0,0,.669H6.884A.334.334,0,0,0,7.218,8.958Zm5.464-.335H11.343a.335.335,0,0,0,0,.669h1.339A.335.335,0,0,0,12.682,8.623ZM8.166,10.6a.334.334,0,0,0-.457.123L7.04,11.881a.334.334,0,1,0,.579.334l.67-1.159A.336.336,0,0,0,8.166,10.6Zm1.9-3.283a.336.336,0,0,0,.457-.122l.669-1.159a.335.335,0,0,0-.58-.335L9.939,6.859A.335.335,0,0,0,10.062,7.316Zm.457,3.406a.335.335,0,0,0-.58.334c.343.516.659,1.386.96,1.327a.337.337,0,0,0,.289-.5ZM7.619,5.7a.335.335,0,0,0-.579.335c.345.52.659,1.385.959,1.326a.337.337,0,0,0,.29-.5Z" data-name="creative mind" id="creative_mind"/></g></g></svg>