<?xml version="1.0" encoding="UTF-8"?> <svg xmlns="http://www.w3.org/2000/svg" width="52" height="52" viewBox="0 0 52 52" fill="none"> <circle cx="26.238" cy="26.2036" r="25.4925" fill="#3091C5"></circle> <path d="M34 35.0433V36.7103H32V35.3773L24.582 36.6133C24.5104 36.6252 24.4371 36.6214 24.3671 36.6021C24.2971 36.5828 24.2322 36.5485 24.1768 36.5016C24.1214 36.4547 24.0769 36.3963 24.0464 36.3304C24.0159 36.2646 24 36.1929 24 36.1203V34.7103H20V36.7103H18V34.7103H17C16.7348 34.7103 16.4804 34.605 16.2929 34.4174C16.1054 34.2299 16 33.9755 16 33.7103V18.7103C16 18.4451 16.1054 18.1907 16.2929 18.0032C16.4804 17.8157 16.7348 17.7103 17 17.7103H24V16.3003C24 16.2277 24.0159 16.156 24.0464 16.0902C24.0769 16.0243 24.1214 15.9659 24.1768 15.919C24.2322 15.8721 24.2971 15.8378 24.3671 15.8185C24.4371 15.7992 24.5104 15.7954 24.582 15.8073L35.164 17.5713C35.3975 17.6101 35.6097 17.7305 35.7627 17.9111C35.9158 18.0916 35.9999 18.3206 36 18.5573V20.7103H37V22.7103H36V29.7103H37V31.7103H36V33.8633C35.9999 34.1 35.9158 34.329 35.7627 34.5096C35.6097 34.6901 35.3975 34.8105 35.164 34.8493L34 35.0433ZM18 19.7103V32.7103H24V19.7103H18ZM26 34.3503L34 33.0163V19.4043L26 18.0713V34.3503Z" fill="white"></path> </svg> 