<?xml version="1.0" encoding="UTF-8"?> <svg xmlns="http://www.w3.org/2000/svg" width="52" height="51" viewBox="0 0 52 51" fill="none"> <circle cx="25.8986" cy="25.492" r="25.4925" fill="#3091C5"></circle> <path d="M18 15H34C34.2652 15 34.5196 15.1054 34.7071 15.2929C34.8946 15.4804 35 15.7348 35 16V34C35 34.2652 34.8946 34.5196 34.7071 34.7071C34.5196 34.8946 34.2652 35 34 35H18C17.7348 35 17.4804 34.8946 17.2929 34.7071C17.1054 34.5196 17 34.2652 17 34V16C17 15.7348 17.1054 15.4804 17.2929 15.2929C17.4804 15.1054 17.7348 15 18 15V15ZM19 17V33H33V17H19ZM21 19H31V23H21V19ZM21 25H23V27H21V25ZM21 29H23V31H21V29ZM25 25H27V27H25V25ZM25 29H27V31H25V29ZM29 25H31V31H29V25Z" fill="white"></path> </svg> 