<?xml version="1.0" encoding="UTF-8"?> <svg xmlns="http://www.w3.org/2000/svg" width="52" height="52" viewBox="0 0 52 52" fill="none"> <circle cx="26.4418" cy="25.8714" r="25.4925" fill="#3091C5"></circle> <path d="M35.4418 16.8633V34.8793C35.4397 35.142 35.3344 35.3932 35.1486 35.5788C34.9628 35.7644 34.7114 35.8695 34.4488 35.8713H18.4348C18.1716 35.8713 17.9192 35.7669 17.733 35.5808C17.5468 35.3948 17.442 35.1425 17.4418 34.8793V16.8633C17.4439 16.6007 17.5492 16.3495 17.735 16.1639C17.9208 15.9782 18.1722 15.8732 18.4348 15.8713H34.4488C34.9968 15.8713 35.4418 16.3153 35.4418 16.8633V16.8633ZM33.4418 17.8713H19.4418V33.8713H33.4418V17.8713ZM25.7348 26.9923L29.9778 22.7503L31.3918 24.1643L25.7348 29.8213L21.8448 25.9313L23.2598 24.5173L25.7348 26.9923V26.9923Z" fill="white"></path> </svg> 