<?xml version="1.0" encoding="UTF-8"?> <svg xmlns="http://www.w3.org/2000/svg" width="52" height="52" viewBox="0 0 52 52" fill="none"> <circle cx="25.6105" cy="25.7" r="24.4925" stroke="#3091C5" stroke-width="2"></circle> <path d="M17.081 21.103L16.9196 20.9775V21.182V30.4727C16.9196 31.0551 17.3917 31.5272 17.9741 31.5272H33.2468C33.8292 31.5272 34.3014 31.0551 34.3014 30.4727V21.182V20.9776L34.14 21.1031L27.3072 26.4175C26.3092 27.1937 24.9118 27.1937 23.9138 26.4175L17.081 21.103ZM32.7081 20.0516L32.9382 19.8727H32.6467H18.5743H18.2829L18.5129 20.0516L24.9631 25.0684C25.3439 25.3646 25.8771 25.3646 26.2579 25.0684L32.7081 20.0516ZM15.2105 20.9272C15.2105 19.4009 16.4478 18.1636 17.9741 18.1636H33.2468C34.7731 18.1636 36.0105 19.4009 36.0105 20.9272V30.4727C36.0105 31.999 34.7732 33.2363 33.2468 33.2363H17.9741C16.4478 33.2363 15.2105 31.999 15.2105 30.4727V20.9272Z" fill="#3091C5" stroke="#3591C7" stroke-width="0.2" stroke-linecap="round"></path> </svg> 