<?xml version="1.0" encoding="UTF-8"?> <svg xmlns="http://www.w3.org/2000/svg" width="52" height="52" viewBox="0 0 52 52" fill="none"> <circle cx="25.6105" cy="26.2036" r="25.4925" fill="white"></circle> <path d="M17.081 21.6067L16.9196 21.4812V21.6856V30.9764C16.9196 31.5588 17.3917 32.0309 17.9741 32.0309H33.2468C33.8292 32.0309 34.3014 31.5588 34.3014 30.9764V21.6857V21.4812L34.14 21.6068L27.3072 26.9211C26.3092 27.6973 24.9118 27.6973 23.9138 26.9211L17.081 21.6067ZM32.7081 20.5553L32.9382 20.3764H32.6467H18.5743H18.2829L18.5129 20.5553L24.9631 25.5721C25.3439 25.8683 25.8771 25.8683 26.2579 25.5721L32.7081 20.5553ZM15.2105 21.4309C15.2105 19.9046 16.4478 18.6673 17.9741 18.6673H33.2468C34.7731 18.6673 36.0105 19.9046 36.0105 21.4309V30.9764C36.0105 32.5027 34.7732 33.74 33.2468 33.74H17.9741C16.4478 33.74 15.2105 32.5027 15.2105 30.9764V21.4309Z" fill="#3091C5" stroke="white" stroke-width="0.2" stroke-linecap="round"></path> </svg> 