<?xml version="1.0" encoding="UTF-8"?> <svg xmlns="http://www.w3.org/2000/svg" width="52" height="52" viewBox="0 0 52 52" fill="none"> <circle cx="25.6358" cy="25.8714" r="25.4925" fill="#3091C5"></circle> <path d="M17.6357 36.3713C17.6357 34.2496 18.4786 32.2148 19.9789 30.7145C21.4792 29.2142 23.514 28.3713 25.6357 28.3713C27.7575 28.3713 29.7923 29.2142 31.2926 30.7145C32.7929 32.2148 33.6357 34.2496 33.6357 36.3713H31.6357C31.6357 34.78 31.0036 33.2539 29.8784 32.1287C28.7532 31.0035 27.227 30.3713 25.6357 30.3713C24.0444 30.3713 22.5183 31.0035 21.3931 32.1287C20.2679 33.2539 19.6357 34.78 19.6357 36.3713H17.6357ZM25.6357 27.3713C22.3207 27.3713 19.6357 24.6863 19.6357 21.3713C19.6357 18.0563 22.3207 15.3713 25.6357 15.3713C28.9507 15.3713 31.6357 18.0563 31.6357 21.3713C31.6357 24.6863 28.9507 27.3713 25.6357 27.3713ZM25.6357 25.3713C27.8457 25.3713 29.6357 23.5813 29.6357 21.3713C29.6357 19.1613 27.8457 17.3713 25.6357 17.3713C23.4257 17.3713 21.6357 19.1613 21.6357 21.3713C21.6357 23.5813 23.4257 25.3713 25.6357 25.3713Z" fill="white"></path> </svg> 