<?xml version="1.0" encoding="UTF-8"?> <svg xmlns="http://www.w3.org/2000/svg" width="52" height="51" viewBox="0 0 52 51" fill="none"> <circle cx="26.1068" cy="25.507" r="25.4925" fill="#3091C5"></circle> <path d="M26.1068 15.507C31.6288 15.507 36.1068 19.485 36.1068 24.396C36.106 25.8692 35.5204 27.2818 34.4786 28.3234C33.4367 29.365 32.024 29.9504 30.5508 29.951H28.5848C27.6628 29.951 26.9178 30.696 26.9178 31.618C26.9178 32.04 27.0848 32.429 27.3398 32.718C27.6068 33.018 27.7738 33.407 27.7738 33.84C27.7738 34.763 27.0068 35.507 26.1068 35.507C20.5848 35.507 16.1068 31.029 16.1068 25.507C16.1068 19.985 20.5848 15.507 26.1068 15.507ZM24.9178 31.618C24.9174 31.1363 25.012 30.6593 25.1961 30.2142C25.3803 29.7691 25.6504 29.3647 25.991 29.0241C26.3316 28.6835 26.736 28.4134 27.181 28.2293C27.6261 28.0451 28.1031 27.9506 28.5848 27.951H30.5508C31.4934 27.9504 32.3973 27.5759 33.064 26.9096C33.7307 26.2432 34.1058 25.3396 34.1068 24.397C34.1068 20.646 30.5748 17.507 26.1068 17.507C24.0424 17.5051 22.0572 18.3013 20.5662 19.7292C19.0752 21.1571 18.194 23.1061 18.1067 25.1687C18.0194 27.2312 18.7328 29.2477 20.0978 30.7965C21.4628 32.3453 23.3736 33.3064 25.4308 33.479C25.096 32.9162 24.9188 32.2738 24.9178 31.619V31.618ZM21.6068 25.507C21.209 25.507 20.8275 25.3489 20.5462 25.0676C20.2648 24.7863 20.1068 24.4048 20.1068 24.007C20.1068 23.6091 20.2648 23.2276 20.5462 22.9463C20.8275 22.665 21.209 22.507 21.6068 22.507C22.0046 22.507 22.3862 22.665 22.6675 22.9463C22.9488 23.2276 23.1068 23.6091 23.1068 24.007C23.1068 24.4048 22.9488 24.7863 22.6675 25.0676C22.3862 25.3489 22.0046 25.507 21.6068 25.507V25.507ZM30.6068 25.507C30.209 25.507 29.8275 25.3489 29.5462 25.0676C29.2648 24.7863 29.1068 24.4048 29.1068 24.007C29.1068 23.6091 29.2648 23.2276 29.5462 22.9463C29.8275 22.665 30.209 22.507 30.6068 22.507C31.0046 22.507 31.3862 22.665 31.6675 22.9463C31.9488 23.2276 32.1068 23.6091 32.1068 24.007C32.1068 24.4048 31.9488 24.7863 31.6675 25.0676C31.3862 25.3489 31.0046 25.507 30.6068 25.507ZM26.1068 22.507C25.709 22.507 25.3275 22.3489 25.0462 22.0676C24.7648 21.7863 24.6068 21.4048 24.6068 21.007C24.6068 20.6091 24.7648 20.2276 25.0462 19.9463C25.3275 19.665 25.709 19.507 26.1068 19.507C26.5046 19.507 26.8862 19.665 27.1675 19.9463C27.4488 20.2276 27.6068 20.6091 27.6068 21.007C27.6068 21.4048 27.4488 21.7863 27.1675 22.0676C26.8862 22.3489 26.5046 22.507 26.1068 22.507Z" fill="white"></path> </svg> 