<?xml version="1.0" encoding="UTF-8"?> <svg xmlns="http://www.w3.org/2000/svg" width="52" height="52" viewBox="0 0 52 52" fill="none"> <circle cx="25.5954" cy="26.2036" r="25.4925" fill="white"></circle> <path fill-rule="evenodd" clip-rule="evenodd" d="M18.654 24.1205C20.5622 28.2757 23.9578 31.5791 28.1791 33.3691L28.1924 33.3748L29.0079 33.7383C30.0463 34.2009 31.2669 33.8723 31.9327 32.9509L33.2932 31.0678C33.3763 30.9528 33.3549 30.7929 33.2445 30.7038L30.8692 28.7875C30.7512 28.6923 30.5775 28.7145 30.4872 28.8364L29.5628 30.0838C29.3383 30.3867 28.9328 30.492 28.5893 30.3365C25.4329 28.9081 22.8965 26.3717 21.468 23.2153C21.3126 22.8717 21.4178 22.4663 21.7208 22.2418L22.9682 21.3174C23.0901 21.227 23.1123 21.0534 23.017 20.9353L21.1005 18.5598C21.0115 18.4494 20.8516 18.4279 20.7366 18.5109L18.8433 19.8777C17.9158 20.5473 17.5891 21.7782 18.0626 22.8196L18.6533 24.1191C18.6536 24.1196 18.6538 24.12 18.654 24.1205ZM27.5471 34.8407C22.9605 32.8937 19.2714 29.3032 17.1979 24.7873L17.1967 24.7846L16.6047 23.4824C15.8156 21.7466 16.36 19.6953 17.9059 18.5792L19.7992 17.2125C20.6043 16.6312 21.7235 16.7814 22.347 17.5542L24.2634 19.9298C24.9303 20.7563 24.7749 21.9717 23.9217 22.604L23.2069 23.1337C24.4143 25.4766 26.328 27.3902 28.6708 28.5976L29.2005 27.8828C29.8329 27.0296 31.0483 26.8743 31.8748 27.5411L34.25 29.4573C35.0231 30.081 35.1731 31.2006 34.5913 32.0057L33.2308 33.8888C32.1211 35.4246 30.0868 35.9722 28.3561 35.2011L27.5471 34.8407Z" fill="#3091C5"></path> </svg> 