<?xml version="1.0" encoding="UTF-8"?> <svg xmlns="http://www.w3.org/2000/svg" width="52" height="52" viewBox="0 0 52 52" fill="none"> <circle cx="25.9254" cy="26.2616" r="24.4925" stroke="#3091C5" stroke-width="2"></circle> <path fill-rule="evenodd" clip-rule="evenodd" d="M18.9839 24.1786C20.8922 28.3338 24.2878 31.6372 28.509 33.4272L28.5224 33.4329L29.3378 33.7964C30.3763 34.259 31.5968 33.9304 32.2626 33.009L33.6232 31.1259C33.7063 31.0109 33.6849 30.851 33.5744 30.7619L31.1992 28.8457C31.0811 28.7504 30.9075 28.7726 30.8172 28.8945L29.8927 30.1419C29.6682 30.4448 29.2628 30.5501 28.9192 30.3946C25.7629 28.9662 23.2264 26.4298 21.798 23.2734C21.6425 22.9299 21.7478 22.5244 22.0507 22.2999L23.2982 21.3755C23.42 21.2851 23.4422 21.1115 23.347 20.9934L21.4305 18.6179C21.3414 18.5075 21.1815 18.486 21.0665 18.569L19.1733 19.9358C18.2457 20.6054 17.9191 21.8363 18.3925 22.8777L18.9833 24.1772C18.9835 24.1777 18.9837 24.1781 18.9839 24.1786ZM27.8771 34.8988C23.2904 32.9518 19.6013 29.3613 17.5279 24.8454L17.5266 24.8427L16.9346 23.5405C16.1455 21.8048 16.69 19.7534 18.2359 18.6373L20.1291 17.2706C20.9343 16.6893 22.0534 16.8395 22.6769 17.6123L24.5934 19.9879C25.2602 20.8144 25.1049 22.0298 24.2517 22.6621L23.5369 23.1919C24.7443 25.5347 26.6579 27.4483 29.0008 28.6558L29.5305 27.9409C30.1628 27.0877 31.3782 26.9324 32.2048 27.5992L34.58 29.5154C35.3531 30.1391 35.503 31.2587 34.9213 32.0638L33.5607 33.9469C32.4511 35.4827 30.4168 36.0303 28.6861 35.2592L27.8771 34.8988Z" fill="#3591C7" stroke="#3591C7" stroke-width="0.2" stroke-linejoin="round"></path> </svg> 