<?xml version="1.0" encoding="UTF-8"?> <svg xmlns="http://www.w3.org/2000/svg" width="22" height="22" viewBox="0 0 22 22" fill="none"> <path d="M18.4658 20.1379V21.8049H16.4658V20.4719L9.04776 21.7079C8.97616 21.7198 8.90283 21.716 8.83286 21.6967C8.76289 21.6774 8.69796 21.6431 8.64258 21.5962C8.5872 21.5493 8.5427 21.4909 8.51216 21.425C8.48163 21.3592 8.46579 21.2875 8.46576 21.2149V19.8049H4.46576V21.8049H2.46576V19.8049H1.46576C1.20054 19.8049 0.946189 19.6996 0.758652 19.512C0.571116 19.3245 0.465759 19.0701 0.465759 18.8049V3.80491C0.465759 3.53969 0.571116 3.28534 0.758652 3.0978C0.946189 2.91027 1.20054 2.80491 1.46576 2.80491H8.46576V1.39491C8.46579 1.32233 8.48163 1.25063 8.51216 1.18479C8.5427 1.11894 8.5872 1.06053 8.64258 1.01362C8.69796 0.96671 8.76289 0.932418 8.83286 0.913126C8.90283 0.893835 8.97616 0.890008 9.04776 0.901911L19.6298 2.66591C19.8633 2.70473 20.0754 2.82512 20.2285 3.00567C20.3816 3.18621 20.4657 3.41521 20.4658 3.65191V5.80491H21.4658V7.80491H20.4658V14.8049H21.4658V16.8049H20.4658V18.9579C20.4657 19.1946 20.3816 19.4236 20.2285 19.6042C20.0754 19.7847 19.8633 19.9051 19.6298 19.9439L18.4658 20.1379ZM2.46576 4.80491V17.8049H8.46576V4.80491H2.46576ZM10.4658 19.4449L18.4658 18.1109V4.49891L10.4658 3.16591V19.4449Z" fill="#3091C5"></path> </svg> 