<?xml version="1.0" encoding="UTF-8"?> <svg xmlns="http://www.w3.org/2000/svg" width="19" height="21" viewBox="0 0 19 21" fill="none"> <path d="M12.1809 2.89551H2.18091V18.8955H16.1809V6.89551H12.1809V2.89551ZM0.180908 1.88751C0.180908 1.33951 0.627908 0.895508 1.17991 0.895508H13.1809L18.1809 5.89551V19.8885C18.1818 20.0198 18.1569 20.15 18.1075 20.2717C18.0581 20.3934 17.9852 20.5042 17.893 20.5977C17.8008 20.6912 17.691 20.7656 17.5701 20.8167C17.4491 20.8678 17.3192 20.8946 17.1879 20.8955H1.17391C0.911286 20.8937 0.659926 20.7886 0.474126 20.603C0.288326 20.4174 0.183003 20.1661 0.180908 19.9035V1.88751ZM8.18091 9.89551V6.89551H10.1809V9.89551H13.1809V11.8955H10.1809V14.8955H8.18091V11.8955H5.18091V9.89551H8.18091Z" fill="#3091C5"></path> </svg> 