<?xml version="1.0" encoding="UTF-8"?> <svg xmlns="http://www.w3.org/2000/svg" width="23" height="17" viewBox="0 0 23 17" fill="none"> <path d="M8.35929 13.8024C8.24041 14.6367 7.8245 15.4 7.18797 15.9523C6.55143 16.5046 5.73701 16.8086 4.89429 16.8086C4.05157 16.8086 3.23714 16.5046 2.60061 15.9523C1.96407 15.4 1.54817 14.6367 1.42929 13.8024H0.394287V1.80237C0.394287 1.53715 0.499644 1.2828 0.68718 1.09526C0.874717 0.907725 1.12907 0.802368 1.39429 0.802368H15.3943C15.6595 0.802368 15.9139 0.907725 16.1014 1.09526C16.2889 1.2828 16.3943 1.53715 16.3943 1.80237V3.80237H19.3943L22.3943 7.85837V13.8024H20.3593C20.2404 14.6367 19.8245 15.4 19.188 15.9523C18.5514 16.5046 17.737 16.8086 16.8943 16.8086C16.0516 16.8086 15.2371 16.5046 14.6006 15.9523C13.9641 15.4 13.5482 14.6367 13.4293 13.8024H8.35929ZM14.3943 2.80237H2.39429V10.8524C2.78885 10.4496 3.27489 10.148 3.81104 9.97348C4.34719 9.79892 4.91758 9.75647 5.47366 9.84976C6.02975 9.94305 6.55506 10.1693 7.0049 10.5093C7.45473 10.8492 7.81577 11.2929 8.05729 11.8024H13.7313C13.8993 11.4494 14.1243 11.1284 14.3943 10.8524V2.80237ZM16.3943 8.80237H20.3943V8.51737L18.3863 5.80237H16.3943V8.80237ZM16.8943 14.8024C17.2922 14.8024 17.6739 14.6443 17.9553 14.3629C18.2367 14.0815 18.3948 13.6998 18.3948 13.3019C18.3948 12.9039 18.2367 12.5223 17.9553 12.2409C17.6739 11.9595 17.2922 11.8014 16.8943 11.8014C16.4963 11.8014 16.1147 11.9595 15.8333 12.2409C15.5519 12.5223 15.3938 12.9039 15.3938 13.3019C15.3938 13.6998 15.5519 14.0815 15.8333 14.3629C16.1147 14.6443 16.4963 14.8024 16.8943 14.8024V14.8024ZM6.39429 13.3024C6.39429 13.1054 6.35549 12.9103 6.28011 12.7283C6.20472 12.5464 6.09424 12.381 5.95495 12.2417C5.81566 12.1024 5.6503 11.9919 5.46831 11.9165C5.28632 11.8412 5.09127 11.8024 4.89429 11.8024C4.6973 11.8024 4.50225 11.8412 4.32026 11.9165C4.13827 11.9919 3.97291 12.1024 3.83363 12.2417C3.69434 12.381 3.58385 12.5464 3.50847 12.7283C3.43309 12.9103 3.39429 13.1054 3.39429 13.3024C3.39429 13.7002 3.55232 14.0817 3.83363 14.363C4.11493 14.6443 4.49646 14.8024 4.89429 14.8024C5.29211 14.8024 5.67364 14.6443 5.95495 14.363C6.23625 14.0817 6.39429 13.7002 6.39429 13.3024V13.3024Z" fill="#3091C5"></path> </svg> 