<?xml version="1.0" encoding="UTF-8"?> <svg xmlns="http://www.w3.org/2000/svg" width="22" height="22" viewBox="0 0 22 22" fill="none"> <path d="M10.424 0.702393L20.323 2.11739L21.737 12.0174L12.545 21.2094C12.3574 21.3969 12.1031 21.5022 11.838 21.5022C11.5728 21.5022 11.3185 21.3969 11.131 21.2094L1.23096 11.3094C1.04349 11.1219 0.938171 10.8676 0.938171 10.6024C0.938171 10.3372 1.04349 10.0829 1.23096 9.89539L10.424 0.702393ZM11.131 2.82439L3.35196 10.6024L11.838 19.0874L19.616 11.3094L18.556 3.88439L11.131 2.82439V2.82439ZM13.251 9.18839C12.8758 8.81311 12.6651 8.30417 12.6652 7.77354C12.6652 7.5108 12.717 7.25063 12.8176 7.00791C12.9182 6.76518 13.0656 6.54465 13.2515 6.35889C13.4373 6.17314 13.6579 6.0258 13.9006 5.9253C14.1434 5.82479 14.4036 5.77309 14.6663 5.77313C15.1969 5.77323 15.7058 5.98411 16.081 6.35939C16.4561 6.73467 16.6668 7.24361 16.6667 7.77425C16.6666 8.30488 16.4557 8.81374 16.0805 9.18889C15.7052 9.56404 15.1962 9.77474 14.6656 9.77465C14.135 9.77456 13.6261 9.56367 13.251 9.18839V9.18839Z" fill="#3091C5"></path> </svg> 