<?xml version="1.0" encoding="UTF-8"?> <svg xmlns="http://www.w3.org/2000/svg" width="52" height="52" viewBox="0 0 52 52" fill="none"> <circle cx="25.6105" cy="26.2617" r="25.4925" fill="#3091C5"></circle> <path fill-rule="evenodd" clip-rule="evenodd" d="M18.6811 28.2703C18.7279 28.286 18.7751 28.2972 18.8223 28.3041C18.8737 28.4249 18.9402 28.5813 19.0177 28.7642C19.2069 29.2105 19.4619 29.814 19.7251 30.4437C20.2618 31.7279 20.8032 33.0516 20.9227 33.4305C21.0707 33.8989 21.2272 34.2173 21.398 34.4347C21.4863 34.5471 21.5884 34.6453 21.708 34.7197C21.7681 34.7571 21.8317 34.7878 21.898 34.8106C21.9009 34.8116 21.9039 34.8126 21.9068 34.8136C22.2487 34.9427 22.5605 34.8889 22.7557 34.8232C22.8602 34.788 22.9447 34.7455 23.0046 34.7111C23.0351 34.6935 23.0609 34.6771 23.0815 34.6633L23.0864 34.66L26.1065 32.7766L29.595 35.4511C29.6465 35.4906 29.7026 35.5237 29.7621 35.5496C30.1812 35.7325 30.587 35.7963 30.9688 35.7442C31.3499 35.6921 31.6525 35.532 31.8777 35.3518C32.0983 35.1753 32.2478 34.9777 32.3409 34.8308C32.3885 34.7558 32.4242 34.6895 32.4494 34.6386C32.462 34.6131 32.4722 34.5911 32.4801 34.5734L32.4901 34.5501L32.4939 34.541L32.4955 34.5371L32.4963 34.5353L32.4969 34.5336C32.5153 34.4878 32.5293 34.4404 32.5389 34.3919L35.7236 18.3355C35.7338 18.2842 35.7389 18.2319 35.7389 18.1796C35.7389 17.7094 35.5618 17.2623 35.1452 16.991C34.7891 16.7591 34.3925 16.7491 34.1418 16.7681C33.8714 16.7886 33.6217 16.8554 33.4541 16.9087C33.3669 16.9365 33.2938 16.9633 33.241 16.9837C33.2145 16.994 33.1928 17.0028 33.1766 17.0095L33.1645 17.0146L15.304 24.021L15.3017 24.0219C15.2903 24.026 15.2757 24.0315 15.2583 24.0382C15.2237 24.0517 15.1774 24.0707 15.1233 24.0952C15.0177 24.143 14.8696 24.2178 14.7177 24.3219C14.4749 24.4881 13.9165 24.9435 14.0106 25.695C14.0856 26.2946 14.4963 26.6628 14.7466 26.8399C14.884 26.9371 15.0145 27.0066 15.1096 27.0519C15.1537 27.0729 15.2453 27.1101 15.285 27.1263L15.2951 27.1303L18.6811 28.2703ZM33.7895 18.4906L33.7871 18.4917C33.7782 18.4955 33.7692 18.4992 33.7602 18.5028L15.878 25.5177C15.8687 25.5214 15.8593 25.5249 15.8498 25.5282L15.8398 25.5319C15.8284 25.5364 15.8091 25.5442 15.785 25.5552C15.7713 25.5614 15.7569 25.5682 15.7424 25.5754C15.7624 25.5867 15.7816 25.5965 15.7986 25.6046C15.815 25.6124 15.8275 25.6177 15.8343 25.6205L19.1925 26.7511C19.254 26.7718 19.3113 26.7992 19.3639 26.8323L30.4527 20.341L30.463 20.3349C30.4711 20.3301 30.4817 20.324 30.4944 20.3168C30.5197 20.3025 30.5544 20.2835 30.5956 20.2625C30.6726 20.2234 30.7957 20.1652 30.9344 20.1223C31.031 20.0925 31.3157 20.0084 31.6236 20.1072C31.8136 20.1681 32.0103 20.2991 32.1383 20.5211C32.2019 20.6313 32.2357 20.7421 32.2521 20.8435C32.2957 21.0033 32.2888 21.161 32.2547 21.2972C32.1812 21.5905 31.9751 21.8193 31.7876 21.9943C31.6269 22.1444 29.5481 24.149 27.4972 26.1278C26.4745 27.1146 25.4622 28.0916 24.7056 28.822L24.2087 29.3018L30.4835 34.1125C30.6274 34.164 30.7125 34.1614 30.7518 34.156C30.7987 34.1496 30.8371 34.1315 30.8763 34.1002C30.9201 34.0651 30.9585 34.0177 30.9872 33.9725L30.9883 33.9707L34.0771 18.3978C34.0313 18.4088 33.9849 18.4219 33.9403 18.4361C33.8897 18.4522 33.8479 18.4676 33.8203 18.4783C33.8066 18.4836 33.7967 18.4876 33.7914 18.4899L33.7895 18.4906ZM24.7477 31.7349L23.4959 30.7751L23.1925 32.7047L24.7477 31.7349ZM22.3474 28.8706L23.5924 27.6688C24.349 26.9383 25.3614 25.9612 26.3842 24.9743L27.4235 23.9717L20.4561 28.0503L20.4935 28.1385C20.6834 28.5863 20.9394 29.1926 21.204 29.8256C21.4018 30.299 21.6087 30.7974 21.7971 31.2588L22.0996 29.3348C22.1288 29.1493 22.2194 28.9888 22.3474 28.8706Z" fill="white" stroke="#3091C5" stroke-width="0.1" stroke-linecap="round" stroke-linejoin="round"></path> </svg> 