<?xml version="1.0" encoding="UTF-8"?> <svg xmlns="http://www.w3.org/2000/svg" width="51" height="52" viewBox="0 0 51 52" fill="none"> <circle cx="25.5075" cy="26.2616" r="24.4925" stroke="#3091C5" stroke-width="2"></circle> <path d="M26.3647 20.5473C26.3647 20.0739 25.981 19.6902 25.5076 19.6902C25.0342 19.6902 24.6504 20.0739 24.6504 20.5473V26.2616C24.6504 26.5571 24.8027 26.8318 25.0533 26.9885L28.4819 29.1313C28.8833 29.3822 29.4121 29.2602 29.663 28.8587C29.9139 28.4573 29.7919 27.9285 29.3904 27.6776L26.3647 25.7865V20.5473Z" fill="#3091C5"></path> <path fill-rule="evenodd" clip-rule="evenodd" d="M25.5076 16.2616C19.9847 16.2616 15.5076 20.7387 15.5076 26.2616C15.5076 31.7844 19.9847 36.2616 25.5076 36.2616C31.0304 36.2616 35.5076 31.7844 35.5076 26.2616C35.5076 20.7387 31.0304 16.2616 25.5076 16.2616ZM17.2219 26.2616C17.2219 21.6855 20.9315 17.9759 25.5076 17.9759C30.0836 17.9759 33.7933 21.6855 33.7933 26.2616C33.7933 30.8377 30.0836 34.5473 25.5076 34.5473C20.9315 34.5473 17.2219 30.8377 17.2219 26.2616Z" fill="#3091C5"></path> </svg> 