<?xml version="1.0" encoding="UTF-8"?> <svg xmlns="http://www.w3.org/2000/svg" width="52" height="52" viewBox="0 0 52 52" fill="none"> <circle cx="25.8191" cy="26.2616" r="25.4925" fill="#3091C5"></circle> <path d="M22.4782 20.2727C22.6719 20.2779 22.8866 20.2884 23.0909 20.7418C23.2263 21.0437 23.4545 21.5995 23.6404 22.0522C23.7851 22.4045 23.9041 22.6943 23.9339 22.7537C24.002 22.8892 24.0439 23.0455 23.9549 23.2279C23.9444 23.2494 23.9345 23.27 23.9249 23.2898C23.8535 23.438 23.8027 23.5435 23.6826 23.6814C23.6332 23.7381 23.5818 23.8002 23.5305 23.8621C23.4404 23.9711 23.3509 24.0793 23.2741 24.1557C23.138 24.2911 22.9965 24.4372 23.1536 24.7082C23.3108 24.9792 23.8606 25.8704 24.6723 26.5897C25.5449 27.3666 26.3037 27.694 26.6873 27.8595C26.7617 27.8916 26.8221 27.9176 26.8663 27.9397C27.1387 28.0752 27.301 28.0543 27.4581 27.8719C27.6153 27.6894 28.1388 27.0796 28.3222 26.8086C28.5002 26.5376 28.6835 26.5793 28.9349 26.6731C29.1862 26.7669 30.5267 27.4236 30.799 27.5591C30.8528 27.5859 30.9032 27.6101 30.9498 27.6324C31.1393 27.7233 31.268 27.785 31.3227 27.8771C31.3907 27.9917 31.3907 28.5338 31.1656 29.1697C30.9352 29.8055 29.825 30.4154 29.3223 30.4623C29.2747 30.4667 29.2273 30.4725 29.1786 30.4784C28.7179 30.5341 28.1331 30.6048 26.0495 29.7847C23.482 28.7751 21.7872 26.2701 21.4446 25.7636C21.4175 25.7236 21.3989 25.6961 21.3889 25.6828L21.3831 25.675C21.2273 25.4664 20.2735 24.1903 20.2735 22.8736C20.2735 21.6139 20.8941 20.958 21.1771 20.6589C21.1951 20.6399 21.2117 20.6224 21.2266 20.6062C21.478 20.3353 21.7713 20.2675 21.9545 20.2675C22.1379 20.2675 22.3211 20.2675 22.4782 20.2727Z" fill="white"></path> <path fill-rule="evenodd" clip-rule="evenodd" d="M15.3839 35.2637C15.2973 35.5781 15.5836 35.8683 15.8991 35.7859L20.7763 34.512C22.3158 35.3459 24.0492 35.7889 25.8139 35.7889H25.8191C31.6265 35.7889 36.3603 31.0824 36.3603 25.2971C36.3603 22.493 35.2658 19.8557 33.276 17.8751C31.2861 15.8946 28.6416 14.8 25.8191 14.8C20.0118 14.8 15.278 19.5065 15.278 25.2919C15.2773 27.1324 15.7631 28.9406 16.6866 30.5352L15.3839 35.2637ZM18.2174 30.9569C18.3305 30.5464 18.274 30.1078 18.0606 29.7394C17.2771 28.3865 16.8653 26.8524 16.8658 25.2919C16.8658 20.391 20.8813 16.3879 25.8191 16.3879C28.2219 16.3879 30.4636 17.3163 32.1558 19.0005C33.846 20.6829 34.7725 22.9152 34.7725 25.2971C34.7725 30.1979 30.7571 34.201 25.8191 34.201H25.8139C24.3144 34.201 22.8409 33.8245 21.5326 33.1158C21.1785 32.924 20.7647 32.8739 20.375 32.9757L17.4508 33.7394L18.2174 30.9569Z" fill="white"></path> </svg> 